# xmcd
#
# Track frame offsets:
#	150
#	15085
#	25073
#	36658
#	50731
#	66246
#	81930
#	94851
#	105833
#	115214
#	131436
#	144355
#
# Disc length: 2167 seconds
#
# Revision: 0
# Processed by: cddbd v1.5.2PL0 Copyright (c) Steve Scherf et al.
# Submitted via: EasyCDDAExtractor 10.0.6.1
#
DISCID=9708750c
DTITLE=Cody Shuler - Hit Parade Of Love
DYEAR=1900
DGENRE=Bluegrass
TTITLE0=New Jerusalem
TTITLE1=Soldiers Joy
TTITLE2=Little Cabin Home On The Hill
TTITLE3=Wednesday Night Waltz
TTITLE4=Cody's Tune
TTITLE5=Little Hoskins
TTITLE6=Rawhide
TTITLE7=Back To The Old Home
TTITLE8=Boston Boy
TTITLE9=By The Side Of The Road
TTITLE10=Hit Parade Of Love
TTITLE11=Have You Someone In Heaven Waiting
EXTD=
EXTT0=
EXTT1=
EXTT2=
EXTT3=
EXTT4=
EXTT5=
EXTT6=
EXTT7=
EXTT8=
EXTT9=
EXTT10=
EXTT11=
PLAYORDER=
